<svg xmlns="http://www.w3.org/2000/svg" viewBox="0 0 64 64" role="img" aria-label="AKR">
  <!--
    The mark, cut to what survives at sixteen pixels in a browser tab: the disc,
    the head and the bill, with the fine work taken out.

    A rendition of the company's emblem. Masters -> Logo replaces it, as do
    COMPANY_LOGO_URL and COMPANY_LOGO_DATA on the service.
  -->
  <defs>
    <linearGradient id="favDisc" x1="0.55" y1="0" x2="0.2" y2="1">
      <stop offset="0" stop-color="#2F72AC"/>
      <stop offset="0.34" stop-color="#2A9C8B"/>
      <stop offset="0.62" stop-color="#4FB44D"/>
      <stop offset="1" stop-color="#EBC53A"/>
    </linearGradient>
  </defs>
  <g transform="translate(2.4,4.6) scale(0.166) translate(-30,-30)">
    <circle cx="185" cy="185" r="150" fill="url(#favDisc)"/>
    <path fill="#8FCB57" d="M277.4 66.8 A150 150 0 0 1 246 322
      L230.5 287.3 A112 112 0 0 0 254 96.7 Z"/>
    <path fill="#0E4834" d="M246 146 L206 96
      C190 80 150 72 118 92 C84 114 72 158 80 200
      C90 250 124 284 168 290 C206 294 234 268 243 226
      L242 194 L246 146 Z"/>
    <path fill="#08231B" d="M152 116 L248 150 L242 176 L162 148 Z"/>
    <circle cx="212" cy="172" r="12" fill="#D81E28"/>
    <path fill="#F6C93C" d="M242 142
      C288 146 326 160 352 182 C364 192 366 206 356 218
      L340 244 C340 226 334 214 320 206 C296 194 268 190 240 190 Z"/>
  </g>
</svg>
